{"title":"Hellboy 2-The golden army - AVM","uid":5045201,"size":401574217,"categoryP":"video","categoryS":"handheld","magnet":"?xt=urn:btih:3e8c6f1e828660df30f57980c470e0eabcc3eec4&amp;dn=Hellboy+2-The+golden+army+-+AVM&amp;tr=udp%3A%2F%2Ftracker.openbittorrent.com%3A80&amp;tr=udp%3A%2F%2Fopen.demonii.com%3A1337&amp;tr=udp%3A%2F%2Ftracker.coppersurfer.tk%3A6969&amp;tr=udp%3A%2F%2Fexodus.desync.com%3A6969","seeders":0,"leechers":1,"uploader":"AVIDM","files":1,"time":1249592014,"description":"AVIDMobile - http://www.avidmobile.com.ar (Mobile media)\n\nVideo\nID                               : 1\nFormat                           : MPEG-4 Visual\nFormat profile                   : Advanced Simple@L5\nFormat settings, BVOP            : Yes\nFormat settings, QPel            : No\nFormat settings, GMC             : No warppoints\nFormat settings, Matrix          : Default (H.263)\nCodec ID                         : 20\nDuration                         : 1h 59mn\nBit rate mode                    : Variable\nBit rate                         : 381 Kbps\nMaximum bit rate                 : 1 204 Kbps\nWidth                            : 320 pixels\nHeight                           : 240 pixels\nDisplay aspect ratio             : 4/3\nFrame rate mode                  : Variable\nFrame rate                       : 23.976 fps\nMinimum frame rate               : 23.974 fps\nMaximum frame rate               : 23.981 fps\nResolution                       : 24 bits\nColorimetry                      : 4:2:0\nScan type                        : Progressive\nBits/(Pixel*Frame)               : 0.207\nStream size                      : 326 MiB (85%)\n\nAudio\nID                               : 2\nFormat                           : AAC\nFormat/Info                      : Advanced Audio Codec\nFormat version                   : Version 4\nFormat profile                   : LC\nFormat settings, SBR             : No\nCodec ID                         : 40\nDuration                         : 1h 59mn\nBit rate mode                    : Variable\nBit rate                         : 63.1 Kbps\nMaximum bit rate                 : 139 Kbps\nChannel(s)                       : 2 channels\nChannel positions                : L R\nSampling rate                    : 22.05 KHz\nResolution                       : 16 bits\nStream size                      : 54.1 MiB (14%)","torrent":{"xt":"urn:btih:3e8c6f1e828660df30f57980c470e0eabcc3eec4","amp;dn":"Hellboy+2-The+golden+army+-+AVM","amp;tr":["udp%3A%2F%2Ftracker.openbittorrent.com%3A80","udp%3A%2F%2Fopen.demonii.com%3A1337","udp%3A%2F%2Ftracker.coppersurfer.tk%3A6969","udp%3A%2F%2Fexodus.desync.com%3A6969"],"infoHash":"3e8c6f1e828660df30f57980c470e0eabcc3eec4","infoHashBuffer":{"type":"Buffer","data":[62,140,111,30,130,134,96,223,48,245,121,128,196,112,224,234,188,195,238,196]},"announce":[],"urlList":[]}}